# xmcd CD database file
#
# Track frame offsets:
#	150
#	22152
#	43985
#	64817
#	80850
#	107950
#	134107
#	154570
#	167482
#	196159
#	208527
#	239387
#	261037
#
# Disc length: 3628 seconds
#
# Revision: 0
# Processed by: cddbd v1.5.2PL0 Copyright (c) Steve Scherf et al.
# Submitted via: CDex 1.51
#
DISCID=be0e2a0d
DTITLE=Johnny Frigo - Fonny Frigo's DNA Exposed!
DYEAR=2001
DGENRE=Jazz
TTITLE0=I Concentrate on You
TTITLE1=Poor Butterfly
TTITLE2=Cheek to Cheek
TTITLE3=What is There to Say?
TTITLE4=Nobody Else But Me
TTITLE5=Try a Little Tenderness
TTITLE6=Hair on the G-String
TTITLE7=I Love You
TTITLE8=Too Late Now/Street of Dreams
TTITLE9=She Loves Me
TTITLE10=Crystal Silence
TTITLE11=Tanga
TTITLE12=What'll I Do?
EXTD=YEAR: 2001
EXTT0=
EXTT1=
EXTT2=
EXTT3=
EXTT4=
EXTT5=
EXTT6=
EXTT7=
EXTT8=
EXTT9=
EXTT10=
EXTT11=
EXTT12=
PLAYORDER=
